<?xml version="1.0" encoding="UTF-8" standalone="no"?>
<!-- Created with Inkscape (http://www.inkscape.org/) -->

<svg
   version="1.0"
   width="512"
   height="512"
   id="svg2424"
   sodipodi:docname="archlinux-logo-white-scalable.svg"
   inkscape:version="1.4.4 (dcaf3e7d9e, 2026-05-05)"
   xmlns:inkscape="http://www.inkscape.org/namespaces/inkscape"
   xmlns:sodipodi="http://sodipodi.sourceforge.net/DTD/sodipodi-0.dtd"
   xmlns:xlink="http://www.w3.org/1999/xlink"
   xmlns="http://www.w3.org/2000/svg"
   xmlns:svg="http://www.w3.org/2000/svg">
  <sodipodi:namedview
     id="namedview1"
     pagecolor="#ffffff"
     bordercolor="#000000"
     borderopacity="0.25"
     inkscape:showpageshadow="2"
     inkscape:pageopacity="0.0"
     inkscape:pagecheckerboard="0"
     inkscape:deskcolor="#d1d1d1"
     inkscape:zoom="0.60474954"
     inkscape:cx="107.48251"
     inkscape:cy="300.95104"
     inkscape:window-width="1215"
     inkscape:window-height="1022"
     inkscape:window-x="0"
     inkscape:window-y="0"
     inkscape:window-maximized="0"
     inkscape:current-layer="svg2424" />
  <defs
     id="defs2426">
    <linearGradient
       x1="112.49854"
       y1="6.1372099"
       x2="112.49853"
       y2="129.3468"
       id="path1082_2_"
       gradientUnits="userSpaceOnUse"
       gradientTransform="translate(287,-83)">
      <stop
         id="stop193"
         style="stop-color:#ffffff;stop-opacity:0"
         offset="0" />
      <stop
         id="stop195"
         style="stop-color:#ffffff;stop-opacity:0.27450982"
         offset="1" />
      <midPointStop
         offset="0"
         style="stop-color:#FFFFFF"
         id="midPointStop197" />
      <midPointStop
         offset="0.5"
         style="stop-color:#FFFFFF"
         id="midPointStop199" />
      <midPointStop
         offset="1"
         style="stop-color:#000000"
         id="midPointStop201" />
    </linearGradient>
    <linearGradient
       x1="541.33502"
       y1="104.50665"
       x2="606.91248"
       y2="303.14029"
       id="linearGradient2544"
       xlink:href="#path1082_2_"
       gradientUnits="userSpaceOnUse"
       gradientTransform="matrix(-0.3937741,0,0,0.393752,357.51969,122.00151)" />
    <linearGradient
       id="linearGradient3388">
      <stop
         id="stop3390"
         style="stop-color:#000000;stop-opacity:0"
         offset="0" />
      <stop
         id="stop3392"
         style="stop-color:#000000;stop-opacity:0.37113401"
         offset="1" />
    </linearGradient>
    <linearGradient
       x1="490.72305"
       y1="237.72447"
       x2="490.72305"
       y2="183.9644"
       id="linearGradient4416"
       xlink:href="#linearGradient3388"
       gradientUnits="userSpaceOnUse"
       gradientTransform="matrix(0.749107,0,0,0.749107,-35.459862,91.44108)" />
  </defs>
  <path
     d="m 255.95185,0 c -22.7887,55.871837 -36.53374,92.41858 -61.90598,146.62955 15.55636,16.48974 34.65105,35.69286 65.66077,57.38097 C 226.36816,190.29194 203.62722,176.51881 186.63256,162.2264 154.16094,229.98343 103.28724,326.50031 0.04813043,512 81.190609,465.15504 144.09082,436.27462 202.71079,425.2546 c -2.51717,-10.82628 -3.94828,-22.53702 -3.85108,-34.75592 l 0.0963,-2.59947 c 1.28754,-51.98583 28.33053,-91.96295 60.36555,-89.2486 32.03504,2.71437 56.93551,47.08297 55.64799,99.06883 -0.24216,9.78209 -1.34554,19.19236 -3.27341,27.92027 57.98352,11.34261 120.21114,40.14909 200.25573,86.36029 -15.78323,-29.05803 -29.87113,-55.25173 -43.32456,-80.19858 -21.19134,-16.42469 -43.29495,-37.8015 -88.3821,-60.94321 30.99032,8.0526 53.179,17.34314 70.47461,27.72772 C 313.93504,143.91659 302.8584,110.07629 255.95185,0 Z"
     id="path2518"
     style="fill:#89b4fa;fill-opacity:1;fill-rule:evenodd;stroke:none;stroke-width:3.08086" />
</svg>
